<svg width="61" height="65" viewBox="0 0 61 65" fill="none" xmlns="http://www.w3.org/2000/svg">
<circle cx="33" cy="36" r="28" fill="#BCC871"/>
<circle cx="33" cy="36" r="24" fill="#ECEE7B"/>
<path d="M47.6989 0H53.7889L46.7709 10.962H42.4209L47.6989 0ZM21.7729 64.612C20.3422 64.612 19.0856 64.496 18.0029 64.264C16.9202 64.032 15.9729 63.4713 15.1609 62.582C14.3876 61.6927 14.0009 60.32 14.0009 58.464C14.0009 55.8733 14.7742 52.3933 16.3209 48.024C17.9062 43.6547 19.9749 39.266 22.5269 34.858C20.5936 34.974 19.0662 35.264 17.9449 35.728C16.8236 36.192 16.0889 36.9073 15.7409 37.874C15.8956 37.874 16.0502 38.0673 16.2049 38.454C16.3982 38.8407 16.4949 39.2467 16.4949 39.672C16.4949 40.368 16.1856 40.9287 15.5669 41.354C14.9482 41.7407 14.1749 41.934 13.2469 41.934C12.1642 41.934 11.2942 41.644 10.6369 41.064C9.97957 40.484 9.65091 39.6527 9.65091 38.57C9.65091 37.2553 10.1536 36.0567 11.1589 34.974C12.2029 33.8913 13.6336 33.0407 15.4509 32.422C17.2682 31.7647 19.2789 31.436 21.4829 31.436C22.2949 31.436 23.3002 31.494 24.4989 31.61C27.6696 26.5833 31.0142 22.4847 34.5329 19.314C38.0902 16.1047 41.4736 14.5 44.6829 14.5C46.5389 14.5 48.0662 14.7707 49.2649 15.312L40.1589 58H31.8069L36.2729 36.946C34.8422 36.2887 33.5276 35.8053 32.3289 35.496C31.1302 35.1867 29.8542 34.974 28.5009 34.858C26.2969 39.614 24.4796 44.486 23.0489 49.474C21.6569 54.4233 20.9609 58.3867 20.9609 61.364C20.9609 62.8333 21.2316 63.916 21.7729 64.612ZM40.1589 18.618C38.4962 19.5073 36.7562 21.17 34.9389 23.606C33.1602 26.0033 31.4202 28.9227 29.7189 32.364C32.5029 32.9053 34.8616 33.582 36.7949 34.394L40.1589 18.618Z" fill="#2F2B2C"/>
</svg>
