<svg width="110" height="33" viewBox="0 0 110 33" fill="none" xmlns="http://www.w3.org/2000/svg">
<rect width="110" height="33" rx="2" transform="matrix(1 0 0 -1 0 33)" fill="white"/>
<path d="M18.3273 19.7165C18.1394 19.8792 17.8606 19.8792 17.6727 19.7165L12.0856 14.878C11.7356 14.5749 11.95 14 12.4129 14L23.5871 14C24.05 14 24.2644 14.5749 23.9144 14.878L18.3273 19.7165Z" fill="#2F2B2C"/>
<path d="M36.8398 25V7.9375H40.9062C42.8984 7.9375 44.4453 8.5625 45.5469 9.8125C46.6484 11.0547 47.1992 12.8047 47.1992 15.0625V17.9219C47.1992 20.1797 46.6406 21.9258 45.5234 23.1602C44.4062 24.3867 42.7852 25 40.6602 25H36.8398ZM38.9844 9.78906V23.1602H40.707C42.2148 23.1602 43.3164 22.7305 44.0117 21.8711C44.707 21.0039 45.0625 19.7227 45.0781 18.0273V15.0039C45.0781 13.207 44.7305 11.8906 44.0352 11.0547C43.3477 10.2109 42.3047 9.78906 40.9062 9.78906H38.9844ZM55.4961 14.2656C55.207 14.2109 54.8945 14.1836 54.5586 14.1836C53.4961 14.1836 52.7539 14.7656 52.332 15.9297V25H50.2578V12.3203H52.2734L52.3086 13.6094C52.8633 12.5938 53.6484 12.0859 54.6641 12.0859C54.9922 12.0859 55.2656 12.1406 55.4844 12.25L55.4961 14.2656ZM61.25 21.5547L63.5586 12.3203H65.7617L61.6133 26.793C61.3008 27.8789 60.8594 28.7031 60.2891 29.2656C59.7188 29.8359 59.0703 30.1211 58.3438 30.1211C58.0625 30.1211 57.7031 30.0586 57.2656 29.9336V28.1758L57.7227 28.2227C58.3242 28.2227 58.793 28.0781 59.1289 27.7891C59.4727 27.5078 59.75 27.0156 59.9609 26.3125L60.3711 24.8945L56.6445 12.3203H58.9062L61.25 21.5547ZM70.9766 19.1992L69.875 20.4648V25H67.8008V7H69.875V17.7695L73.8242 12.3203H76.3086L72.2773 17.6172L76.8359 25H74.4219L70.9766 19.1992ZM81.8047 19.1992L80.7031 20.4648V25H78.6289V7H80.7031V17.7695L84.6523 12.3203H87.1367L83.1055 17.6172L87.6641 25H85.25L81.8047 19.1992ZM91.6836 25H89.6094V12.3203H91.6836V25ZM91.8477 8.95703C91.8477 9.30859 91.75 9.60156 91.5547 9.83594C91.3594 10.0703 91.0625 10.1875 90.6641 10.1875C90.2734 10.1875 89.9805 10.0703 89.7852 9.83594C89.5898 9.60156 89.4922 9.30859 89.4922 8.95703C89.4922 8.60547 89.5898 8.30859 89.7852 8.06641C89.9805 7.82422 90.2734 7.70312 90.6641 7.70312C91.0547 7.70312 91.3477 7.82813 91.543 8.07812C91.7461 8.32031 91.8477 8.61328 91.8477 8.95703ZM100.191 14.2656C99.9023 14.2109 99.5898 14.1836 99.2539 14.1836C98.1914 14.1836 97.4492 14.7656 97.0273 15.9297V25H94.9531V12.3203H96.9688L97.0039 13.6094C97.5586 12.5938 98.3438 12.0859 99.3594 12.0859C99.6875 12.0859 99.9609 12.1406 100.18 12.25L100.191 14.2656Z" fill="#2F2B2C"/>
</svg>
