<svg width="56" height="56" viewBox="0 0 56 56" fill="none" xmlns="http://www.w3.org/2000/svg">
<circle cx="28" cy="28" r="28" fill="#99EFC1"/>
<circle cx="28" cy="28" r="24" fill="#4AC080"/>
<path d="M23.7745 49.5C21.9572 49.5 20.3525 48.9007 18.9605 47.702C17.6072 46.542 16.9305 45.0533 16.9305 43.236C16.9305 41.5347 17.3558 40.1427 18.2065 39.06C19.0572 37.9773 20.1592 37.1267 21.5125 36.508C22.8658 35.8893 24.6832 35.232 26.9645 34.536L27.4865 32.1C25.4758 34.2653 23.1558 35.348 20.5265 35.348C18.3225 35.348 16.4858 34.594 15.0165 33.086C13.5472 31.578 12.8125 29.2193 12.8125 26.01C12.8125 23.1487 13.3732 20.152 14.4945 17.02C15.6545 13.8493 17.3558 11.1813 19.5985 9.016C21.8798 6.812 24.5865 5.71 27.7185 5.71C29.3038 5.71 30.4832 5.98067 31.2565 6.522C32.0298 7.06333 32.4165 7.77866 32.4165 8.668V8.784L32.9965 6H41.4065L34.3305 39.64C33.5572 43.352 32.1845 45.9233 30.2125 47.354C28.2792 48.7847 26.1332 49.5 23.7745 49.5ZM24.2965 29.722C25.1858 29.722 26.0752 29.3547 26.9645 28.62C27.8925 27.8467 28.5498 26.764 28.9365 25.372L31.8945 11.336C31.5852 9.98266 30.7925 9.306 29.5165 9.306C27.9698 9.306 26.5778 10.2147 25.3405 12.032C24.1032 13.8107 23.1365 15.976 22.4405 18.528C21.7445 21.0413 21.3965 23.2647 21.3965 25.198C21.3965 27.1313 21.6672 28.3687 22.2085 28.91C22.7885 29.4513 23.4845 29.722 24.2965 29.722ZM22.4405 44.338C23.1365 44.338 23.7938 43.9707 24.4125 43.236C25.0312 42.54 25.5145 41.3993 25.8625 39.814L26.5585 36.392C24.5092 37.088 22.9238 37.9 21.8025 38.828C20.6812 39.756 20.1205 40.9547 20.1205 42.424C20.1205 42.888 20.3525 43.3133 20.8165 43.7C21.2805 44.1253 21.8218 44.338 22.4405 44.338Z" fill="#2F2B2C"/>
</svg>
