<svg width="32" height="32" viewBox="0 0 32 32" fill="none" xmlns="http://www.w3.org/2000/svg">
<path d="M20.769 8.51367H11.2315C9.70923 8.51367 8.4707 9.7522 8.4707 11.2745V20.812C8.4707 22.3343 9.70923 23.5732 11.2315 23.5732H20.769C22.2913 23.5732 23.5302 22.3347 23.5302 20.812V11.2745C23.5302 9.7522 22.2917 8.51367 20.769 8.51367ZM16.0003 21.0009C13.2669 21.0009 11.043 18.777 11.043 16.0433C11.043 13.3099 13.2669 11.0859 16.0003 11.0859C18.734 11.0859 20.958 13.3099 20.958 16.0433C20.958 18.7766 18.7337 21.0009 16.0003 21.0009ZM21.1173 12.1109C20.4703 12.1109 19.944 11.5847 19.944 10.938C19.944 10.2913 20.4703 9.76504 21.1173 9.76504C21.764 9.76504 22.2903 10.2913 22.2903 10.938C22.2903 11.5847 21.764 12.1109 21.1173 12.1109Z" fill="white"/>
<path d="M15.9995 13.1807C14.4216 13.1807 13.1367 14.4648 13.1367 16.0428C13.1367 17.6214 14.4216 18.9059 15.9995 18.9059C17.5782 18.9059 18.862 17.6214 18.862 16.0428C18.862 14.4652 17.5778 13.1807 15.9995 13.1807Z" fill="white"/>
<path d="M16 0C7.1638 0 0 7.1638 0 16C0 24.8362 7.1638 32 16 32C24.8362 32 32 24.8362 32 16C32 7.1638 24.8362 0 16 0ZM25.6245 20.8119C25.6245 23.4896 23.4465 25.6676 20.7687 25.6676H11.2313C8.55384 25.6676 6.37554 23.4896 6.37554 20.8119V11.2744C6.37554 8.59698 8.55384 6.41868 11.2313 6.41868H20.7687C23.4465 6.41868 25.6245 8.59698 25.6245 11.2744V20.8119Z" fill="white"/>
</svg>
