<svg width="24" height="24" viewBox="0 0 24 24" fill="none" xmlns="http://www.w3.org/2000/svg">
<path d="M15.5773 6.38525H8.42415C7.28241 6.38525 6.35352 7.31415 6.35352 8.45589V15.609C6.35352 16.7507 7.28241 17.6799 8.42415 17.6799H15.5773C16.719 17.6799 17.6482 16.751 17.6482 15.609V8.45589C17.6482 7.31415 16.7193 6.38525 15.5773 6.38525ZM12.0007 15.7507C9.95065 15.7507 8.2827 14.0828 8.2827 12.0324C8.2827 9.98239 9.95065 8.31444 12.0007 8.31444C14.051 8.31444 15.719 9.98239 15.719 12.0324C15.719 14.0825 14.0507 15.7507 12.0007 15.7507ZM15.8385 9.08318C15.3532 9.08318 14.9585 8.68851 14.9585 8.20348C14.9585 7.71844 15.3532 7.32378 15.8385 7.32378C16.3235 7.32378 16.7182 7.71844 16.7182 8.20348C16.7182 8.68851 16.3235 9.08318 15.8385 9.08318Z" fill="white"/>
<path d="M12.0006 9.88574C10.8172 9.88574 9.85352 10.8489 9.85352 12.0323C9.85352 13.2163 10.8172 14.1797 12.0006 14.1797C13.1846 14.1797 14.1475 13.2163 14.1475 12.0323C14.1475 10.8491 13.1843 9.88574 12.0006 9.88574Z" fill="white"/>
<path d="M12 0C5.37285 0 0 5.37285 0 12C0 18.6272 5.37285 24 12 24C18.6272 24 24 18.6272 24 12C24 5.37285 18.6272 0 12 0ZM19.2183 15.6089C19.2183 17.6172 17.5849 19.2507 15.5766 19.2507H8.42345C6.41538 19.2507 4.78166 17.6172 4.78166 15.6089V8.4558C4.78166 6.44774 6.41538 4.81401 8.42345 4.81401H15.5766C17.5849 4.81401 19.2183 6.44774 19.2183 8.4558V15.6089Z" fill="white"/>
</svg>
