<svg width="16" height="16" viewBox="0 0 16 16" fill="none" xmlns="http://www.w3.org/2000/svg">
<path d="M10.3844 4.25671H5.61565C4.85449 4.25671 4.23523 4.87598 4.23523 5.63714V10.4059C4.23523 11.167 4.85449 11.7865 5.61565 11.7865H10.3844C11.1455 11.7865 11.765 11.1672 11.765 10.4059V5.63714C11.765 4.87598 11.1457 4.25671 10.3844 4.25671ZM8.00002 10.5003C6.63332 10.5003 5.52135 9.38838 5.52135 8.0215C5.52135 6.65481 6.63332 5.54284 8.00002 5.54284C9.36689 5.54284 10.4789 6.65481 10.4789 8.0215C10.4789 9.3882 9.36672 10.5003 8.00002 10.5003ZM10.5585 6.05533C10.235 6.05533 9.9719 5.79222 9.9719 5.46886C9.9719 5.1455 10.235 4.8824 10.5585 4.8824C10.8819 4.8824 11.145 5.1455 11.145 5.46886C11.145 5.79222 10.8819 6.05533 10.5585 6.05533Z" fill="#2F2B2C"/>
<path d="M7.99998 6.59033C7.21101 6.59033 6.56857 7.23241 6.56857 8.02138C6.56857 8.8107 7.21101 9.45296 7.99998 9.45296C8.7893 9.45296 9.4312 8.8107 9.4312 8.02138C9.4312 7.23259 8.78912 6.59033 7.99998 6.59033Z" fill="#2F2B2C"/>
<path d="M8 0C3.5819 0 0 3.5819 0 8C0 12.4181 3.5819 16 8 16C12.4181 16 16 12.4181 16 8C16 3.5819 12.4181 0 8 0ZM12.8122 10.4059C12.8122 11.7448 11.7233 12.8338 10.3844 12.8338H5.61563C4.27692 12.8338 3.18777 11.7448 3.18777 10.4059V5.6372C3.18777 4.29849 4.27692 3.20934 5.61563 3.20934H10.3844C11.7233 3.20934 12.8122 4.29849 12.8122 5.6372V10.4059Z" fill="#2F2B2C"/>
</svg>
