<svg width="38" height="17" viewBox="0 0 38 17" fill="none" xmlns="http://www.w3.org/2000/svg">
<path d="M8.49935 1.4165C5.7581 1.4165 3.54102 3.63359 3.54102 6.37484C3.54102 10.0936 8.49935 15.5832 8.49935 15.5832C8.49935 15.5832 13.4577 10.0936 13.4577 6.37484C13.4577 3.63359 11.2406 1.4165 8.49935 1.4165ZM8.49935 8.14567C7.52185 8.14567 6.72852 7.35234 6.72852 6.37484C6.72852 5.39734 7.52185 4.604 8.49935 4.604C9.47685 4.604 10.2702 5.39734 10.2702 6.37484C10.2702 7.35234 9.47685 8.14567 8.49935 8.14567Z" fill="white"/>
<path d="M19.8301 8.06836L18.9922 9.08203V12H17.9199V3.46875H18.9922V7.58789L19.6953 6.65625L21.9922 3.46875H23.2812L20.5098 7.22461L23.498 12H22.2148L19.8301 8.06836ZM23.9316 8.53711C23.9316 7.61523 24.1543 6.88672 24.5996 6.35156C25.0488 5.8125 25.6406 5.54297 26.375 5.54297C27.1094 5.54297 27.6992 5.80469 28.1445 6.32812C28.5938 6.85156 28.8242 7.56445 28.8359 8.4668V9.13477C28.8359 10.0527 28.6133 10.7793 28.168 11.3145C27.7227 11.8496 27.1289 12.1172 26.3867 12.1172C25.6523 12.1172 25.0625 11.8574 24.6172 11.3379C24.1758 10.8184 23.9473 10.1152 23.9316 9.22852V8.53711ZM24.9688 9.13477C24.9688 9.78711 25.0957 10.3008 25.3496 10.6758C25.6074 11.0469 25.9531 11.2324 26.3867 11.2324C27.3008 11.2324 27.7715 10.5723 27.7988 9.25195V8.53711C27.7988 7.88867 27.6699 7.37695 27.4121 7.00195C27.1543 6.62305 26.8086 6.43359 26.375 6.43359C25.9492 6.43359 25.6074 6.62305 25.3496 7.00195C25.0957 7.37695 24.9688 7.88672 24.9688 8.53125V9.13477ZM32.791 6.63281C32.6465 6.60547 32.4902 6.5918 32.3223 6.5918C31.791 6.5918 31.4199 6.88281 31.209 7.46484V12H30.1719V5.66016H31.1797L31.1973 6.30469C31.4746 5.79688 31.8672 5.54297 32.375 5.54297C32.5391 5.54297 32.6758 5.57031 32.7852 5.625L32.791 6.63281ZM35.4805 4.125V5.66016H36.4355V6.49805H35.4805V10.4297C35.4805 10.6797 35.5215 10.8691 35.6035 10.998C35.6855 11.127 35.8262 11.1914 36.0254 11.1914C36.1621 11.1914 36.3008 11.168 36.4414 11.1211L36.4297 12C36.1953 12.0781 35.9551 12.1172 35.709 12.1172C35.2988 12.1172 34.9863 11.9707 34.7715 11.6777C34.5566 11.3848 34.4492 10.9707 34.4492 10.4355V6.49805H33.4824V5.66016H34.4492V4.125H35.4805Z" fill="white"/>
</svg>
