<svg width="134" height="33" viewBox="0 0 134 33" fill="none" xmlns="http://www.w3.org/2000/svg">
<rect width="134" height="33" rx="2" transform="matrix(1 0 0 -1 0 33)" fill="white"/>
<path d="M22.3273 19.7165C22.1394 19.8792 21.8606 19.8792 21.6727 19.7165L16.0856 14.878C15.7356 14.5749 15.95 14 16.4129 14L27.5871 14C28.05 14 28.2644 14.5749 27.9144 14.878L22.3273 19.7165Z" fill="#2F2B2C"/>
<path d="M42.6055 7.9375L47.0586 21.8594L51.5117 7.9375H54.2773V25H52.1328V18.3555L52.332 11.6992L47.8672 25H46.2266L41.7852 11.7461L41.9844 18.3555V25H39.8398V7.9375H42.6055ZM64.2148 25C64.0898 24.7266 64 24.2656 63.9453 23.6172C63.2109 24.6953 62.2734 25.2344 61.1328 25.2344C59.9844 25.2344 59.0859 24.9141 58.4375 24.2734C57.7969 23.625 57.4766 22.7148 57.4766 21.543C57.4766 20.2539 57.9141 19.2305 58.7891 18.4727C59.6641 17.7148 60.8633 17.3281 62.3867 17.3125H63.9102V15.9648C63.9102 15.207 63.7422 14.668 63.4062 14.3477C63.0703 14.0273 62.5586 13.8672 61.8711 13.8672C61.2461 13.8672 60.7383 14.0547 60.3477 14.4297C59.957 14.7969 59.7617 15.2656 59.7617 15.8359H57.6875C57.6875 15.1875 57.8789 14.5703 58.2617 13.9844C58.6445 13.3906 59.1602 12.9258 59.8086 12.5898C60.457 12.2539 61.1797 12.0859 61.9766 12.0859C63.2734 12.0859 64.2578 12.4102 64.9297 13.0586C65.6094 13.6992 65.957 14.6367 65.9727 15.8711V22.2695C65.9805 23.2461 66.1133 24.0938 66.3711 24.8125V25H64.2148ZM61.4492 23.3477C61.957 23.3477 62.4414 23.207 62.9023 22.9258C63.3633 22.6445 63.6992 22.293 63.9102 21.8711V18.8477H62.7383C61.7539 18.8633 60.9766 19.0859 60.4062 19.5156C59.8359 19.9375 59.5508 20.5312 59.5508 21.2969C59.5508 22.0156 59.6953 22.5391 59.9844 22.8672C60.2734 23.1875 60.7617 23.3477 61.4492 23.3477ZM71.9141 9.25V12.3203H73.8242V13.9961H71.9141V21.8594C71.9141 22.3594 71.9961 22.7383 72.1602 22.9961C72.3242 23.2539 72.6055 23.3828 73.0039 23.3828C73.2773 23.3828 73.5547 23.3359 73.8359 23.2422L73.8125 25C73.3438 25.1562 72.8633 25.2344 72.3711 25.2344C71.5508 25.2344 70.9258 24.9414 70.4961 24.3555C70.0664 23.7695 69.8516 22.9414 69.8516 21.8711V13.9961H67.918V12.3203H69.8516V9.25H71.9141ZM82.4609 21.7539C82.4609 21.3086 82.293 20.9258 81.957 20.6055C81.6211 20.2852 80.9727 19.9102 80.0117 19.4805C78.8945 19.0195 78.1055 18.625 77.6445 18.2969C77.1914 17.9688 76.8516 17.5977 76.625 17.1836C76.3984 16.7617 76.2852 16.2617 76.2852 15.6836C76.2852 14.6523 76.6602 13.7969 77.4102 13.1172C78.168 12.4297 79.1328 12.0859 80.3047 12.0859C81.5391 12.0859 82.5312 12.4453 83.2812 13.1641C84.0312 13.8828 84.4062 14.8047 84.4062 15.9297H82.3438C82.3438 15.3594 82.1523 14.875 81.7695 14.4766C81.3867 14.0703 80.8984 13.8672 80.3047 13.8672C79.6953 13.8672 79.2148 14.0273 78.8633 14.3477C78.5195 14.6602 78.3477 15.082 78.3477 15.6133C78.3477 16.0352 78.4727 16.375 78.7227 16.6328C78.9805 16.8906 79.5938 17.2305 80.5625 17.6523C82.1016 18.2539 83.1484 18.8438 83.7031 19.4219C84.2578 19.9922 84.5352 20.7188 84.5352 21.6016C84.5352 22.7031 84.1562 23.5859 83.3984 24.25C82.6406 24.9062 81.625 25.2344 80.3516 25.2344C79.0312 25.2344 77.9609 24.8555 77.1406 24.0977C76.3203 23.3398 75.9102 22.3789 75.9102 21.2148H77.9961C78.0195 21.918 78.2344 22.4688 78.6406 22.8672C79.0469 23.2656 79.6172 23.4648 80.3516 23.4648C81.0391 23.4648 81.5625 23.3125 81.9219 23.0078C82.2812 22.6953 82.4609 22.2773 82.4609 21.7539ZM91.7773 25.2344C90.1992 25.2344 88.9883 24.7656 88.1445 23.8281C87.3008 22.8828 86.8711 21.5 86.8555 19.6797V18.1445C86.8555 16.2539 87.2656 14.7734 88.0859 13.7031C88.9141 12.625 90.0664 12.0859 91.543 12.0859C93.0273 12.0859 94.1367 12.5586 94.8711 13.5039C95.6055 14.4492 95.9805 15.9219 95.9961 17.9219V19.2812H88.918V19.5742C88.918 20.9336 89.1719 21.9219 89.6797 22.5391C90.1953 23.1562 90.9336 23.4648 91.8945 23.4648C92.5039 23.4648 93.0391 23.3516 93.5 23.125C93.9688 22.8906 94.4062 22.5234 94.8125 22.0234L95.8906 23.3359C94.9922 24.6016 93.6211 25.2344 91.7773 25.2344ZM91.543 13.8672C90.6836 13.8672 90.0469 14.1641 89.6328 14.7578C89.2188 15.3438 88.9844 16.2578 88.9297 17.5H93.9219V17.2188C93.8672 16.0156 93.6484 15.1562 93.2656 14.6406C92.8906 14.125 92.3164 13.8672 91.543 13.8672ZM105.207 9.74219C106.902 11.8203 107.75 14.457 107.75 17.6523V18.7305C107.75 19.9727 107.551 21.0898 107.152 22.082C106.762 23.0664 106.203 23.8398 105.477 24.4023C104.758 24.957 103.949 25.2344 103.051 25.2344C102.168 25.2344 101.363 24.9883 100.637 24.4961C99.9102 24.0039 99.3438 23.3164 98.9375 22.4336C98.5312 21.5508 98.3281 20.582 98.3281 19.5273C98.3281 18.3789 98.5156 17.3477 98.8906 16.4336C99.2734 15.5195 99.8086 14.8125 100.496 14.3125C101.184 13.8047 101.945 13.5508 102.781 13.5508C103.758 13.5508 104.629 13.9414 105.395 14.7227C105.066 13.2773 104.473 12.0391 103.613 11.0078L101.492 12.6836L100.695 11.5234L102.617 10C101.758 9.28906 100.73 8.73828 99.5352 8.34766L100.168 6.48438C101.715 6.89844 103.07 7.64063 104.234 8.71094L106.098 7.23438L106.895 8.40625L105.207 9.74219ZM105.688 17.5586L105.664 16.8555C105.461 16.3945 105.145 16.0273 104.715 15.7539C104.293 15.4727 103.82 15.332 103.297 15.332C102.406 15.332 101.699 15.707 101.176 16.457C100.66 17.207 100.402 18.2305 100.402 19.5273C100.402 20.6289 100.656 21.5625 101.164 22.3281C101.672 23.0859 102.316 23.4648 103.098 23.4648C103.863 23.4648 104.48 23.0352 104.949 22.1758C105.426 21.3164 105.672 20.207 105.688 18.8477V17.5586ZM113.059 25H110.984V12.3203H113.059V25ZM113.223 8.95703C113.223 9.30859 113.125 9.60156 112.93 9.83594C112.734 10.0703 112.438 10.1875 112.039 10.1875C111.648 10.1875 111.355 10.0703 111.16 9.83594C110.965 9.60156 110.867 9.30859 110.867 8.95703C110.867 8.60547 110.965 8.30859 111.16 8.06641C111.355 7.82422 111.648 7.70312 112.039 7.70312C112.43 7.70312 112.723 7.82813 112.918 8.07812C113.121 8.32031 113.223 8.61328 113.223 8.95703ZM118.566 25H116.492V7H118.566V25ZM124.074 25H122V7H124.074V25Z" fill="#2F2B2C"/>
</svg>
