<svg width="135" height="17" viewBox="0 0 135 17" fill="none" xmlns="http://www.w3.org/2000/svg">
<path d="M14.166 2.8335H2.83268C2.05352 2.8335 1.4231 3.471 1.4231 4.25016L1.41602 12.7502C1.41602 13.5293 2.05352 14.1668 2.83268 14.1668H14.166C14.9452 14.1668 15.5827 13.5293 15.5827 12.7502V4.25016C15.5827 3.471 14.9452 2.8335 14.166 2.8335ZM14.166 5.66683L8.49935 9.2085L2.83268 5.66683V4.25016L8.49935 7.79183L14.166 4.25016V5.66683Z" fill="white"/>
<path d="M23.3555 9.13477C23.3555 10.1387 23.1738 10.8867 22.8105 11.3789C22.4512 11.8711 21.9414 12.1172 21.2812 12.1172C20.6445 12.1172 20.1543 11.877 19.8105 11.3965V14.4375H18.7793V5.66016H19.7168L19.7695 6.36328C20.1172 5.81641 20.6152 5.54297 21.2637 5.54297C21.959 5.54297 22.4785 5.78516 22.8223 6.26953C23.166 6.75391 23.3438 7.47852 23.3555 8.44336V9.13477ZM22.3242 8.54297C22.3242 7.83203 22.2148 7.30859 21.9961 6.97266C21.7773 6.63281 21.4258 6.46289 20.9414 6.46289C20.4453 6.46289 20.0684 6.71094 19.8105 7.20703V10.5059C20.0645 10.9902 20.4453 11.2324 20.9531 11.2324C21.4219 11.2324 21.7656 11.0645 21.9844 10.7285C22.207 10.3887 22.3203 9.87109 22.3242 9.17578V8.54297ZM24.4746 8.53711C24.4746 7.61523 24.6973 6.88672 25.1426 6.35156C25.5918 5.8125 26.1836 5.54297 26.918 5.54297C27.6523 5.54297 28.2422 5.80469 28.6875 6.32812C29.1367 6.85156 29.3672 7.56445 29.3789 8.4668V9.13477C29.3789 10.0527 29.1562 10.7793 28.7109 11.3145C28.2656 11.8496 27.6719 12.1172 26.9297 12.1172C26.1953 12.1172 25.6055 11.8574 25.1602 11.3379C24.7188 10.8184 24.4902 10.1152 24.4746 9.22852V8.53711ZM25.5117 9.13477C25.5117 9.78711 25.6387 10.3008 25.8926 10.6758C26.1504 11.0469 26.4961 11.2324 26.9297 11.2324C27.8438 11.2324 28.3145 10.5723 28.3418 9.25195V8.53711C28.3418 7.88867 28.2129 7.37695 27.9551 7.00195C27.6973 6.62305 27.3516 6.43359 26.918 6.43359C26.4922 6.43359 26.1504 6.62305 25.8926 7.00195C25.6387 7.37695 25.5117 7.88672 25.5117 8.53125V9.13477ZM33.7969 10.377C33.7969 10.1543 33.7129 9.96289 33.5449 9.80273C33.377 9.64258 33.0527 9.45508 32.5723 9.24023C32.0137 9.00977 31.6191 8.8125 31.3887 8.64844C31.1621 8.48438 30.9922 8.29883 30.8789 8.0918C30.7656 7.88086 30.709 7.63086 30.709 7.3418C30.709 6.82617 30.8965 6.39844 31.2715 6.05859C31.6504 5.71484 32.1328 5.54297 32.7188 5.54297C33.3359 5.54297 33.832 5.72266 34.207 6.08203C34.582 6.44141 34.7695 6.90234 34.7695 7.46484H33.7383C33.7383 7.17969 33.6426 6.9375 33.4512 6.73828C33.2598 6.53516 33.0156 6.43359 32.7188 6.43359C32.4141 6.43359 32.1738 6.51367 31.998 6.67383C31.8262 6.83008 31.7402 7.04102 31.7402 7.30664C31.7402 7.51758 31.8027 7.6875 31.9277 7.81641C32.0566 7.94531 32.3633 8.11523 32.8477 8.32617C33.6172 8.62695 34.1406 8.92188 34.418 9.21094C34.6953 9.49609 34.834 9.85938 34.834 10.3008C34.834 10.8516 34.6445 11.293 34.2656 11.625C33.8867 11.9531 33.3789 12.1172 32.7422 12.1172C32.082 12.1172 31.5469 11.9277 31.1367 11.5488C30.7266 11.1699 30.5215 10.6895 30.5215 10.1074H31.5645C31.5762 10.459 31.6836 10.7344 31.8867 10.9336C32.0898 11.1328 32.375 11.2324 32.7422 11.2324C33.0859 11.2324 33.3477 11.1562 33.5273 11.0039C33.707 10.8477 33.7969 10.6387 33.7969 10.377ZM37.5469 4.125V5.66016H38.502V6.49805H37.5469V10.4297C37.5469 10.6797 37.5879 10.8691 37.6699 10.998C37.752 11.127 37.8926 11.1914 38.0918 11.1914C38.2285 11.1914 38.3672 11.168 38.5078 11.1211L38.4961 12C38.2617 12.0781 38.0215 12.1172 37.7754 12.1172C37.3652 12.1172 37.0527 11.9707 36.8379 11.6777C36.623 11.3848 36.5156 10.9707 36.5156 10.4355V6.49805H35.5488V5.66016H36.5156V4.125H37.5469ZM42.9727 11.4434C42.6289 11.8926 42.127 12.1172 41.4668 12.1172C40.8926 12.1172 40.459 11.9199 40.166 11.5254C39.873 11.127 39.7246 10.5488 39.7207 9.79102V5.66016H40.752V9.71484C40.752 10.7031 41.0488 11.1973 41.6426 11.1973C42.2715 11.1973 42.7051 10.916 42.9434 10.3535V5.66016H43.9805V12H42.9961L42.9727 11.4434ZM48.1582 6.63281C48.0137 6.60547 47.8574 6.5918 47.6895 6.5918C47.1582 6.5918 46.7871 6.88281 46.5762 7.46484V12H45.5391V5.66016H46.5469L46.5645 6.30469C46.8418 5.79688 47.2344 5.54297 47.7422 5.54297C47.9062 5.54297 48.043 5.57031 48.1523 5.625L48.1582 6.63281ZM57.0586 9.05859C57.0273 9.97656 56.832 10.7168 56.4727 11.2793C56.1172 11.8379 55.6289 12.1172 55.0078 12.1172C54.4023 12.1172 54.0059 11.8066 53.8184 11.1855C53.6426 11.498 53.4453 11.7324 53.2266 11.8887C53.0117 12.041 52.793 12.1172 52.5703 12.1172C52.0938 12.1172 51.7363 11.8906 51.498 11.4375C51.2598 10.9805 51.1719 10.3535 51.2344 9.55664C51.2812 8.91992 51.4043 8.34766 51.6035 7.83984C51.8066 7.32812 52.0645 6.92773 52.377 6.63867C52.6895 6.34961 53.0156 6.20508 53.3555 6.20508C53.6328 6.20508 53.8789 6.24805 54.0938 6.33398C54.3086 6.41992 54.5488 6.58398 54.8145 6.82617L54.5508 10.0723C54.4883 10.9746 54.6816 11.4258 55.1309 11.4258C55.4785 11.4258 55.7617 11.2148 55.9805 10.793C56.2031 10.3711 56.3281 9.79297 56.3555 9.05859C56.4141 7.53125 56.1777 6.37109 55.6465 5.57812C55.1191 4.78516 54.3242 4.38867 53.2617 4.38867C52.6055 4.38867 52.0312 4.58398 51.5391 4.97461C51.0469 5.36133 50.6582 5.92188 50.373 6.65625C50.0918 7.38672 49.9355 8.23438 49.9043 9.19922C49.8496 10.6797 50.0898 11.8359 50.625 12.668C51.1641 13.5039 51.9375 13.9219 52.9453 13.9219C53.2461 13.9219 53.5449 13.877 53.8418 13.7871C54.1426 13.7012 54.3887 13.5918 54.5801 13.459L54.7734 14.1328C54.5664 14.2852 54.293 14.4102 53.9531 14.5078C53.6172 14.6055 53.2754 14.6543 52.9277 14.6543C52.1113 14.6543 51.4062 14.4355 50.8125 13.998C50.2227 13.5605 49.7812 12.9277 49.4883 12.0996C49.1953 11.2754 49.0664 10.3086 49.1016 9.19922C49.1367 8.125 49.3359 7.1582 49.6992 6.29883C50.0664 5.43945 50.5605 4.77734 51.1816 4.3125C51.8027 3.84766 52.5039 3.61523 53.2852 3.61523C54.0898 3.61523 54.7852 3.83594 55.3711 4.27734C55.9609 4.71484 56.3984 5.34375 56.6836 6.16406C56.9688 6.98047 57.0938 7.94531 57.0586 9.05859ZM52.1133 9.55664C52.0703 10.1113 52.1133 10.5371 52.2422 10.834C52.3711 11.1309 52.5703 11.2793 52.8398 11.2793C53.0117 11.2793 53.1758 11.1855 53.332 10.998C53.4922 10.8105 53.625 10.541 53.7305 10.1895L53.7422 10.0723L53.9707 7.08984C53.7988 7 53.625 6.95508 53.4492 6.95508C53.0859 6.95508 52.7852 7.18945 52.5469 7.6582C52.3086 8.12695 52.1641 8.75977 52.1133 9.55664ZM59.5488 12H58.5117V5.66016H59.5488V12ZM59.6309 3.97852C59.6309 4.1543 59.582 4.30078 59.4844 4.41797C59.3867 4.53516 59.2383 4.59375 59.0391 4.59375C58.8438 4.59375 58.6973 4.53516 58.5996 4.41797C58.502 4.30078 58.4531 4.1543 58.4531 3.97852C58.4531 3.80273 58.502 3.6543 58.5996 3.5332C58.6973 3.41211 58.8438 3.35156 59.0391 3.35156C59.2344 3.35156 59.3809 3.41406 59.4785 3.53906C59.5801 3.66016 59.6309 3.80664 59.6309 3.97852ZM64.2656 10.377C64.2656 10.1543 64.1816 9.96289 64.0137 9.80273C63.8457 9.64258 63.5215 9.45508 63.041 9.24023C62.4824 9.00977 62.0879 8.8125 61.8574 8.64844C61.6309 8.48438 61.4609 8.29883 61.3477 8.0918C61.2344 7.88086 61.1777 7.63086 61.1777 7.3418C61.1777 6.82617 61.3652 6.39844 61.7402 6.05859C62.1191 5.71484 62.6016 5.54297 63.1875 5.54297C63.8047 5.54297 64.3008 5.72266 64.6758 6.08203C65.0508 6.44141 65.2383 6.90234 65.2383 7.46484H64.207C64.207 7.17969 64.1113 6.9375 63.9199 6.73828C63.7285 6.53516 63.4844 6.43359 63.1875 6.43359C62.8828 6.43359 62.6426 6.51367 62.4668 6.67383C62.2949 6.83008 62.209 7.04102 62.209 7.30664C62.209 7.51758 62.2715 7.6875 62.3965 7.81641C62.5254 7.94531 62.832 8.11523 63.3164 8.32617C64.0859 8.62695 64.6094 8.92188 64.8867 9.21094C65.1641 9.49609 65.3027 9.85938 65.3027 10.3008C65.3027 10.8516 65.1133 11.293 64.7344 11.625C64.3555 11.9531 63.8477 12.1172 63.2109 12.1172C62.5508 12.1172 62.0156 11.9277 61.6055 11.5488C61.1953 11.1699 60.9902 10.6895 60.9902 10.1074H62.0332C62.0449 10.459 62.1523 10.7344 62.3555 10.9336C62.5586 11.1328 62.8438 11.2324 63.2109 11.2324C63.5547 11.2324 63.8164 11.1562 63.9961 11.0039C64.1758 10.8477 64.2656 10.6387 64.2656 10.377ZM67.7754 12H66.7383V3H67.7754V12ZM71.6777 12.1172C70.8887 12.1172 70.2832 11.8828 69.8613 11.4141C69.4395 10.9414 69.2246 10.25 69.2168 9.33984V8.57227C69.2168 7.62695 69.4219 6.88672 69.832 6.35156C70.2461 5.8125 70.8223 5.54297 71.5605 5.54297C72.3027 5.54297 72.8574 5.7793 73.2246 6.25195C73.5918 6.72461 73.7793 7.46094 73.7871 8.46094V9.14062H70.248V9.28711C70.248 9.9668 70.375 10.4609 70.6289 10.7695C70.8867 11.0781 71.2559 11.2324 71.7363 11.2324C72.041 11.2324 72.3086 11.1758 72.5391 11.0625C72.7734 10.9453 72.9922 10.7617 73.1953 10.5117L73.7344 11.168C73.2852 11.8008 72.5996 12.1172 71.6777 12.1172ZM71.5605 6.43359C71.1309 6.43359 70.8125 6.58203 70.6055 6.87891C70.3984 7.17188 70.2812 7.62891 70.2539 8.25H72.75V8.10938C72.7227 7.50781 72.6133 7.07812 72.4219 6.82031C72.2344 6.5625 71.9473 6.43359 71.5605 6.43359ZM76.0137 5.66016L76.043 6.3457C76.4453 5.81055 76.959 5.54297 77.584 5.54297C78.7051 5.54297 79.2734 6.29102 79.2891 7.78711V12H78.2578V7.83398C78.2578 7.33789 78.1738 6.98633 78.0059 6.7793C77.8418 6.56836 77.5938 6.46289 77.2617 6.46289C77.0039 6.46289 76.7715 6.54883 76.5645 6.7207C76.3613 6.89258 76.1973 7.11719 76.0723 7.39453V12H75.0352V5.66016H76.0137ZM83.9297 10.377C83.9297 10.1543 83.8457 9.96289 83.6777 9.80273C83.5098 9.64258 83.1855 9.45508 82.7051 9.24023C82.1465 9.00977 81.752 8.8125 81.5215 8.64844C81.2949 8.48438 81.125 8.29883 81.0117 8.0918C80.8984 7.88086 80.8418 7.63086 80.8418 7.3418C80.8418 6.82617 81.0293 6.39844 81.4043 6.05859C81.7832 5.71484 82.2656 5.54297 82.8516 5.54297C83.4688 5.54297 83.9648 5.72266 84.3398 6.08203C84.7148 6.44141 84.9023 6.90234 84.9023 7.46484H83.8711C83.8711 7.17969 83.7754 6.9375 83.584 6.73828C83.3926 6.53516 83.1484 6.43359 82.8516 6.43359C82.5469 6.43359 82.3066 6.51367 82.1309 6.67383C81.959 6.83008 81.873 7.04102 81.873 7.30664C81.873 7.51758 81.9355 7.6875 82.0605 7.81641C82.1895 7.94531 82.4961 8.11523 82.9805 8.32617C83.75 8.62695 84.2734 8.92188 84.5508 9.21094C84.8281 9.49609 84.9668 9.85938 84.9668 10.3008C84.9668 10.8516 84.7773 11.293 84.3984 11.625C84.0195 11.9531 83.5117 12.1172 82.875 12.1172C82.2148 12.1172 81.6797 11.9277 81.2695 11.5488C80.8594 11.1699 80.6543 10.6895 80.6543 10.1074H81.6973C81.709 10.459 81.8164 10.7344 82.0195 10.9336C82.2227 11.1328 82.5078 11.2324 82.875 11.2324C83.2188 11.2324 83.4805 11.1562 83.6602 11.0039C83.8398 10.8477 83.9297 10.6387 83.9297 10.377ZM87.9141 9.09961L87.3633 9.73242V12H86.3262V3H87.3633V8.38477L89.3379 5.66016H90.5801L88.5645 8.30859L90.8438 12H89.6367L87.9141 9.09961ZM92.8535 12H91.8164V5.66016H92.8535V12ZM92.9355 3.97852C92.9355 4.1543 92.8867 4.30078 92.7891 4.41797C92.6914 4.53516 92.543 4.59375 92.3438 4.59375C92.1484 4.59375 92.002 4.53516 91.9043 4.41797C91.8066 4.30078 91.7578 4.1543 91.7578 3.97852C91.7578 3.80273 91.8066 3.6543 91.9043 3.5332C92.002 3.41211 92.1484 3.35156 92.3438 3.35156C92.5391 3.35156 92.6855 3.41406 92.7832 3.53906C92.8848 3.66016 92.9355 3.80664 92.9355 3.97852ZM99.082 9.13477C99.082 10.123 98.9043 10.8672 98.5488 11.3672C98.1934 11.8672 97.6777 12.1172 97.002 12.1172C96.3301 12.1172 95.8262 11.8281 95.4902 11.25L95.4375 12H94.4941V3H95.5254V6.35742C95.8652 5.81445 96.3535 5.54297 96.9902 5.54297C97.6855 5.54297 98.207 5.78906 98.5547 6.28125C98.9023 6.77344 99.0781 7.51562 99.082 8.50781V9.13477ZM98.0508 8.54297C98.0508 7.79297 97.9453 7.25977 97.7344 6.94336C97.5273 6.62305 97.1895 6.46289 96.7207 6.46289C96.1855 6.46289 95.7871 6.75195 95.5254 7.33008V10.3477C95.7832 10.918 96.1855 11.2031 96.7324 11.2031C97.2012 11.2031 97.5371 11.0391 97.7402 10.7109C97.9434 10.3828 98.0469 9.87305 98.0508 9.18164V8.54297ZM103.67 12C103.607 11.8633 103.562 11.6328 103.535 11.3086C103.168 11.8477 102.699 12.1172 102.129 12.1172C101.555 12.1172 101.105 11.957 100.781 11.6367C100.461 11.3125 100.301 10.8574 100.301 10.2715C100.301 9.62695 100.52 9.11523 100.957 8.73633C101.395 8.35742 101.994 8.16406 102.756 8.15625H103.518V7.48242C103.518 7.10352 103.434 6.83398 103.266 6.67383C103.098 6.51367 102.842 6.43359 102.498 6.43359C102.186 6.43359 101.932 6.52734 101.736 6.71484C101.541 6.89844 101.443 7.13281 101.443 7.41797H100.406C100.406 7.09375 100.502 6.78516 100.693 6.49219C100.885 6.19531 101.143 5.96289 101.467 5.79492C101.791 5.62695 102.152 5.54297 102.551 5.54297C103.199 5.54297 103.691 5.70508 104.027 6.0293C104.367 6.34961 104.541 6.81836 104.549 7.43555V10.6348C104.553 11.123 104.619 11.5469 104.748 11.9062V12H103.67ZM102.287 11.1738C102.541 11.1738 102.783 11.1035 103.014 10.9629C103.244 10.8223 103.412 10.6465 103.518 10.4355V8.92383H102.932C102.439 8.93164 102.051 9.04297 101.766 9.25781C101.48 9.46875 101.338 9.76562 101.338 10.1484C101.338 10.5078 101.41 10.7695 101.555 10.9336C101.699 11.0938 101.943 11.1738 102.287 11.1738ZM108.779 6.63281C108.635 6.60547 108.479 6.5918 108.311 6.5918C107.779 6.5918 107.408 6.88281 107.197 7.46484V12H106.16V5.66016H107.168L107.186 6.30469C107.463 5.79688 107.855 5.54297 108.363 5.54297C108.527 5.54297 108.664 5.57031 108.773 5.625L108.779 6.63281ZM110.936 12H109.898V5.66016H110.936V12ZM111.018 3.97852C111.018 4.1543 110.969 4.30078 110.871 4.41797C110.773 4.53516 110.625 4.59375 110.426 4.59375C110.23 4.59375 110.084 4.53516 109.986 4.41797C109.889 4.30078 109.84 4.1543 109.84 3.97852C109.84 3.80273 109.889 3.6543 109.986 3.5332C110.084 3.41211 110.23 3.35156 110.426 3.35156C110.621 3.35156 110.768 3.41406 110.865 3.53906C110.967 3.66016 111.018 3.80664 111.018 3.97852ZM113.549 5.66016L113.578 6.3457C113.98 5.81055 114.494 5.54297 115.119 5.54297C116.24 5.54297 116.809 6.29102 116.824 7.78711V12H115.793V7.83398C115.793 7.33789 115.709 6.98633 115.541 6.7793C115.377 6.56836 115.129 6.46289 114.797 6.46289C114.539 6.46289 114.307 6.54883 114.1 6.7207C113.896 6.89258 113.732 7.11719 113.607 7.39453V12H112.57V5.66016H113.549ZM119.361 5.66016L119.391 6.3457C119.793 5.81055 120.307 5.54297 120.932 5.54297C122.053 5.54297 122.621 6.29102 122.637 7.78711V12H121.605V7.83398C121.605 7.33789 121.521 6.98633 121.354 6.7793C121.189 6.56836 120.941 6.46289 120.609 6.46289C120.352 6.46289 120.119 6.54883 119.912 6.7207C119.709 6.89258 119.545 7.11719 119.42 7.39453V12H118.383V5.66016H119.361ZM124.266 11.4316C124.266 11.2441 124.32 11.0879 124.43 10.9629C124.543 10.8379 124.711 10.7754 124.934 10.7754C125.156 10.7754 125.324 10.8379 125.438 10.9629C125.555 11.0879 125.613 11.2441 125.613 11.4316C125.613 11.6113 125.555 11.7617 125.438 11.8828C125.324 12.0039 125.156 12.0645 124.934 12.0645C124.711 12.0645 124.543 12.0039 124.43 11.8828C124.32 11.7617 124.266 11.6113 124.266 11.4316ZM128.479 12H127.441V5.66016H128.479V12ZM128.561 3.97852C128.561 4.1543 128.512 4.30078 128.414 4.41797C128.316 4.53516 128.168 4.59375 127.969 4.59375C127.773 4.59375 127.627 4.53516 127.529 4.41797C127.432 4.30078 127.383 4.1543 127.383 3.97852C127.383 3.80273 127.432 3.6543 127.529 3.5332C127.627 3.41211 127.773 3.35156 127.969 3.35156C128.164 3.35156 128.311 3.41406 128.408 3.53906C128.51 3.66016 128.561 3.80664 128.561 3.97852ZM133.195 10.377C133.195 10.1543 133.111 9.96289 132.943 9.80273C132.775 9.64258 132.451 9.45508 131.971 9.24023C131.412 9.00977 131.018 8.8125 130.787 8.64844C130.561 8.48438 130.391 8.29883 130.277 8.0918C130.164 7.88086 130.107 7.63086 130.107 7.3418C130.107 6.82617 130.295 6.39844 130.67 6.05859C131.049 5.71484 131.531 5.54297 132.117 5.54297C132.734 5.54297 133.23 5.72266 133.605 6.08203C133.98 6.44141 134.168 6.90234 134.168 7.46484H133.137C133.137 7.17969 133.041 6.9375 132.85 6.73828C132.658 6.53516 132.414 6.43359 132.117 6.43359C131.812 6.43359 131.572 6.51367 131.396 6.67383C131.225 6.83008 131.139 7.04102 131.139 7.30664C131.139 7.51758 131.201 7.6875 131.326 7.81641C131.455 7.94531 131.762 8.11523 132.246 8.32617C133.016 8.62695 133.539 8.92188 133.816 9.21094C134.094 9.49609 134.232 9.85938 134.232 10.3008C134.232 10.8516 134.043 11.293 133.664 11.625C133.285 11.9531 132.777 12.1172 132.141 12.1172C131.48 12.1172 130.945 11.9277 130.535 11.5488C130.125 11.1699 129.92 10.6895 129.92 10.1074H130.963C130.975 10.459 131.082 10.7344 131.285 10.9336C131.488 11.1328 131.773 11.2324 132.141 11.2324C132.484 11.2324 132.746 11.1562 132.926 11.0039C133.105 10.8477 133.195 10.6387 133.195 10.377Z" fill="white"/>
</svg>
