<svg width="17" height="17" viewBox="0 0 17 17" fill="none" xmlns="http://www.w3.org/2000/svg">
<path d="M14.1737 10.8942C13.3025 10.8942 12.4596 10.7525 11.6733 10.4975C11.4254 10.4125 11.1492 10.4762 10.9579 10.6675L9.84583 12.0629C7.84125 11.1067 5.96417 9.30042 4.96542 7.225L6.34667 6.04917C6.53792 5.85083 6.59458 5.57458 6.51667 5.32667C6.25458 4.54042 6.12 3.6975 6.12 2.82625C6.12 2.44375 5.80125 2.125 5.41875 2.125H2.96792C2.58542 2.125 2.125 2.295 2.125 2.82625C2.125 9.40667 7.60042 14.875 14.1737 14.875C14.6767 14.875 14.875 14.4287 14.875 14.0392V11.5954C14.875 11.2129 14.5562 10.8942 14.1737 10.8942Z" fill="white"/>
</svg>
