<svg width="23" height="23" viewBox="0 0 23 23" fill="none" xmlns="http://www.w3.org/2000/svg">
<path d="M18.9519 14.5659C17.787 14.5659 16.6599 14.3765 15.6087 14.0355C15.2772 13.9219 14.9078 14.0071 14.6521 14.2628L13.1652 16.1286C10.4849 14.85 7.97506 12.4349 6.63966 9.65992L8.4865 8.08774C8.74221 7.82255 8.81798 7.45318 8.7138 7.1217C8.36337 6.07042 8.18343 4.94338 8.18343 3.77845C8.18343 3.26701 7.75723 2.84082 7.2458 2.84082H3.96884C3.45741 2.84082 2.8418 3.06812 2.8418 3.77845C2.8418 12.577 10.1629 19.8886 18.9519 19.8886C19.6244 19.8886 19.8895 19.2919 19.8895 18.771V15.5035C19.8895 14.9921 19.4634 14.5659 18.9519 14.5659Z" fill="white"/>
</svg>
