<svg width="89" height="17" viewBox="0 0 89 17" fill="none" xmlns="http://www.w3.org/2000/svg">
<path d="M14.1737 10.8942C13.3025 10.8942 12.4596 10.7525 11.6733 10.4975C11.4254 10.4125 11.1492 10.4762 10.9579 10.6675L9.84583 12.0629C7.84125 11.1067 5.96417 9.30042 4.96542 7.225L6.34667 6.04917C6.53792 5.85083 6.59458 5.57458 6.51667 5.32667C6.25458 4.54042 6.12 3.6975 6.12 2.82625C6.12 2.44375 5.80125 2.125 5.41875 2.125H2.96792C2.58542 2.125 2.125 2.295 2.125 2.82625C2.125 9.40667 7.60042 14.875 14.1737 14.875C14.6767 14.875 14.875 14.4287 14.875 14.0392V11.5954C14.875 11.2129 14.5562 10.8942 14.1737 10.8942Z" fill="white"/>
<path d="M21.4922 7.42383H23.4199V8.44922H21.4922V11.1445H20.4492V8.44922H18.5039V7.42383H20.4492V4.93359H21.4922V7.42383ZM25.9746 7.20703H26.6367C27.0625 7.20703 27.3906 7.07617 27.6211 6.81445C27.8516 6.55273 27.9668 6.19531 27.9668 5.74219C27.9668 4.74219 27.5801 4.24219 26.8066 4.24219C26.4355 4.24219 26.1445 4.37695 25.9336 4.64648C25.7227 4.91602 25.6172 5.26953 25.6172 5.70703H24.5859C24.5859 5.02344 24.793 4.46094 25.207 4.01953C25.625 3.57422 26.1582 3.35156 26.8066 3.35156C27.4785 3.35156 28.0117 3.5625 28.4062 3.98438C28.8008 4.40234 28.998 4.99609 28.998 5.76562C28.998 6.16016 28.8945 6.5293 28.6875 6.87305C28.4844 7.21289 28.2188 7.46289 27.8906 7.62305C28.6953 7.91992 29.0977 8.58594 29.0977 9.62109C29.0977 10.3828 28.8848 10.9902 28.459 11.4434C28.0371 11.8926 27.4844 12.1172 26.8008 12.1172C26.125 12.1172 25.5781 11.9043 25.1602 11.4785C24.7461 11.0488 24.5391 10.4727 24.5391 9.75H25.5762C25.5762 10.2031 25.6855 10.5645 25.9043 10.834C26.123 11.0996 26.4219 11.2324 26.8008 11.2324C27.1875 11.2324 27.4941 11.1016 27.7207 10.8398C27.9512 10.5781 28.0664 10.1797 28.0664 9.64453C28.0664 8.60938 27.5762 8.0918 26.5957 8.0918H25.9746V7.20703ZM31.002 7.72266L31.3711 3.46875H35.0801V4.4707H32.2441L32.0449 6.79688C32.3965 6.55078 32.7754 6.42773 33.1816 6.42773C33.8457 6.42773 34.3672 6.68555 34.7461 7.20117C35.125 7.7168 35.3145 8.41016 35.3145 9.28125C35.3145 10.1641 35.1074 10.8574 34.6934 11.3613C34.2832 11.8652 33.7188 12.1172 33 12.1172C32.3594 12.1172 31.8379 11.9082 31.4355 11.4902C31.0332 11.0723 30.8027 10.4941 30.7441 9.75586H31.7168C31.7754 10.2441 31.9141 10.6133 32.1328 10.8633C32.3555 11.1094 32.6445 11.2324 33 11.2324C33.4023 11.2324 33.7168 11.0586 33.9434 10.7109C34.1699 10.3594 34.2832 9.88672 34.2832 9.29297C34.2832 8.73438 34.1602 8.2793 33.9141 7.92773C33.6719 7.57617 33.3438 7.40039 32.9297 7.40039C32.5859 7.40039 32.3105 7.49023 32.1035 7.66992L31.8281 7.94531L31.002 7.72266ZM40.4355 9.13477H41.3848V10.0195H40.4355V12H39.3984V10.0195H36.1758V9.38086L39.3457 3.46875H40.4355V9.13477ZM37.3242 9.13477H39.3984V5.08008L37.3242 9.13477ZM45.6152 7.72266L45.9844 3.46875H49.6934V4.4707H46.8574L46.6582 6.79688C47.0098 6.55078 47.3887 6.42773 47.7949 6.42773C48.459 6.42773 48.9805 6.68555 49.3594 7.20117C49.7383 7.7168 49.9277 8.41016 49.9277 9.28125C49.9277 10.1641 49.7207 10.8574 49.3066 11.3613C48.8965 11.8652 48.332 12.1172 47.6133 12.1172C46.9727 12.1172 46.4512 11.9082 46.0488 11.4902C45.6465 11.0723 45.416 10.4941 45.3574 9.75586H46.3301C46.3887 10.2441 46.5273 10.6133 46.7461 10.8633C46.9688 11.1094 47.2578 11.2324 47.6133 11.2324C48.0156 11.2324 48.3301 11.0586 48.5566 10.7109C48.7832 10.3594 48.8965 9.88672 48.8965 9.29297C48.8965 8.73438 48.7734 8.2793 48.5273 7.92773C48.2852 7.57617 47.957 7.40039 47.543 7.40039C47.1992 7.40039 46.9238 7.49023 46.7168 7.66992L46.4414 7.94531L45.6152 7.72266ZM54.2109 12H53.168V4.77539L51.375 5.57812V4.59375L54.0469 3.42773H54.2109V12ZM61.7578 4.07812L58.8223 12H57.7383L60.668 4.35938H56.8652V3.46875H61.7578V4.07812ZM64.9922 8.81836H62.5723V7.93359H64.9922V8.81836ZM69.5684 3.46289V4.38281H69.3984C68.707 4.39844 68.166 4.63281 67.7754 5.08594C67.3848 5.53516 67.1602 6.21289 67.1016 7.11914C67.4805 6.64258 67.9648 6.4043 68.5547 6.4043C69.1836 6.4043 69.6816 6.66406 70.0488 7.18359C70.4199 7.69922 70.6055 8.37695 70.6055 9.2168C70.6055 10.1113 70.4004 10.8184 69.9902 11.3379C69.584 11.8574 69.0371 12.1172 68.3496 12.1172C67.6582 12.1172 67.1016 11.8105 66.6797 11.1973C66.2578 10.584 66.0469 9.76953 66.0469 8.75391V8.33789C66.0469 7.16602 66.1738 6.23242 66.4277 5.53711C66.6816 4.8418 67.0547 4.32617 67.5469 3.99023C68.043 3.65039 68.6582 3.47461 69.3926 3.46289H69.5684ZM68.3789 7.30664C68.0977 7.30664 67.8379 7.41406 67.5996 7.62891C67.3613 7.84375 67.1895 8.11719 67.084 8.44922V8.87695C67.084 9.56836 67.2051 10.1328 67.4473 10.5703C67.6934 11.0039 67.9941 11.2207 68.3496 11.2207C68.7363 11.2207 69.0391 11.043 69.2578 10.6875C69.4766 10.3281 69.5859 9.85547 69.5859 9.26953C69.5859 8.69141 69.4766 8.2207 69.2578 7.85742C69.0391 7.49023 68.7461 7.30664 68.3789 7.30664ZM76.5938 4.07812L73.6582 12H72.5742L75.5039 4.35938H71.7012V3.46875H76.5938V4.07812ZM81.4277 3.46289V4.38281H81.2578C80.5664 4.39844 80.0254 4.63281 79.6348 5.08594C79.2441 5.53516 79.0195 6.21289 78.9609 7.11914C79.3398 6.64258 79.8242 6.4043 80.4141 6.4043C81.043 6.4043 81.541 6.66406 81.9082 7.18359C82.2793 7.69922 82.4648 8.37695 82.4648 9.2168C82.4648 10.1113 82.2598 10.8184 81.8496 11.3379C81.4434 11.8574 80.8965 12.1172 80.209 12.1172C79.5176 12.1172 78.9609 11.8105 78.5391 11.1973C78.1172 10.584 77.9062 9.76953 77.9062 8.75391V8.33789C77.9062 7.16602 78.0332 6.23242 78.2871 5.53711C78.541 4.8418 78.9141 4.32617 79.4062 3.99023C79.9023 3.65039 80.5176 3.47461 81.252 3.46289H81.4277ZM80.2383 7.30664C79.957 7.30664 79.6973 7.41406 79.459 7.62891C79.2207 7.84375 79.0488 8.11719 78.9434 8.44922V8.87695C78.9434 9.56836 79.0645 10.1328 79.3066 10.5703C79.5527 11.0039 79.8535 11.2207 80.209 11.2207C80.5957 11.2207 80.8984 11.043 81.1172 10.6875C81.3359 10.3281 81.4453 9.85547 81.4453 9.26953C81.4453 8.69141 81.3359 8.2207 81.1172 7.85742C80.8984 7.49023 80.6055 7.30664 80.2383 7.30664ZM88.4531 4.07812L85.5176 12H84.4336L87.3633 4.35938H83.5605V3.46875H88.4531V4.07812Z" fill="white"/>
</svg>
