<svg width="108" height="33" viewBox="0 0 108 33" fill="none" xmlns="http://www.w3.org/2000/svg">
<rect width="108" height="33" rx="2" transform="matrix(1 0 0 -1 0 33)" fill="white"/>
<path d="M22.0117 7.9375V20.0664C21.9961 21.6836 21.5273 22.9492 20.6055 23.8633C19.6836 24.7773 18.3984 25.2344 16.75 25.2344C15.0625 25.2344 13.7734 24.7891 12.8828 23.8984C11.9922 23 11.5391 21.7227 11.5234 20.0664V7.9375H13.6562V19.9844C13.6562 21.1328 13.8984 21.9922 14.3828 22.5625C14.875 23.125 15.6641 23.4062 16.75 23.4062C17.8438 23.4062 18.6328 23.125 19.1172 22.5625C19.6094 21.9922 19.8555 21.1328 19.8555 19.9844V7.9375H22.0117ZM26.9805 12.3203L27.0273 13.4922C27.8008 12.5547 28.8203 12.0859 30.0859 12.0859C31.5 12.0859 32.4883 12.6992 33.0508 13.9258C33.8477 12.6992 34.957 12.0859 36.3789 12.0859C38.7148 12.0859 39.9102 13.543 39.9648 16.457V25H37.9023V16.6562C37.9023 15.7344 37.7383 15.0508 37.4102 14.6055C37.082 14.1523 36.5273 13.9258 35.7461 13.9258C35.1211 13.9258 34.6133 14.168 34.2227 14.6523C33.832 15.1367 33.6055 15.7539 33.543 16.5039V25H31.457V16.5625C31.4336 14.8047 30.7188 13.9258 29.3125 13.9258C28.2656 13.9258 27.5273 14.4492 27.0977 15.4961V25H25.0352V12.3203H26.9805ZM59.9922 17.9688C59.9922 20.2969 59.4961 22.0898 58.5039 23.3477C57.5117 24.6055 56.1016 25.2344 54.2734 25.2344C52.5156 25.2344 51.125 24.625 50.1016 23.4062C49.0859 22.1797 48.5586 20.4492 48.5195 18.2148V15.0039C48.5195 12.7227 49.0234 10.9375 50.0312 9.64844C51.0391 8.35156 52.4453 7.70312 54.25 7.70312C56.0469 7.70312 57.4453 8.32422 58.4453 9.56641C59.4531 10.8008 59.9688 12.5664 59.9922 14.8633V17.9688ZM57.8477 14.9805C57.8477 13.1758 57.5508 11.8359 56.957 10.9609C56.3711 10.0781 55.4688 9.63672 54.25 9.63672C53.0703 9.63672 52.1758 10.082 51.5664 10.9727C50.9648 11.8633 50.6602 13.1758 50.6523 14.9102V17.9688C50.6523 19.7109 50.9531 21.0391 51.5547 21.9531C52.1641 22.8672 53.0703 23.3242 54.2734 23.3242C55.4766 23.3242 56.3672 22.9023 56.9453 22.0586C57.5234 21.2148 57.8242 19.9219 57.8477 18.1797V14.9805ZM66.2031 19.1992L65.1016 20.4648V25H63.0273V7H65.1016V17.7695L69.0508 12.3203H71.5352L67.5039 17.6172L72.0625 25H69.6484L66.2031 19.1992ZM77.0312 19.1992L75.9297 20.4648V25H73.8555V7H75.9297V17.7695L79.8789 12.3203H82.3633L78.332 17.6172L82.8906 25H80.4766L77.0312 19.1992ZM91.1406 23.8867C90.4531 24.7852 89.4492 25.2344 88.1289 25.2344C86.9805 25.2344 86.1133 24.8398 85.5273 24.0508C84.9414 23.2539 84.6445 22.0977 84.6367 20.582V12.3203H86.6992V20.4297C86.6992 22.4062 87.293 23.3945 88.4805 23.3945C89.7383 23.3945 90.6055 22.832 91.082 21.707V12.3203H93.1562V25H91.1875L91.1406 23.8867ZM101.512 14.2656C101.223 14.2109 100.91 14.1836 100.574 14.1836C99.5117 14.1836 98.7695 14.7656 98.3477 15.9297V25H96.2734V12.3203H98.2891L98.3242 13.6094C98.8789 12.5938 99.6641 12.0859 100.68 12.0859C101.008 12.0859 101.281 12.1406 101.5 12.25L101.512 14.2656Z" fill="#2F2B2C"/>
</svg>
